%TF.GenerationSoftware,KiCad,Pcbnew,9.0.2*%
%TF.CreationDate,2025-12-23T12:34:07+01:00*%
%TF.ProjectId,HilBox,48696c42-6f78-42e6-9b69-6361645f7063,rev?*%
%TF.SameCoordinates,Original*%
%TF.FileFunction,Soldermask,Bot*%
%TF.FilePolarity,Negative*%
%FSLAX46Y46*%
G04 Gerber Fmt 4.6, Leading zero omitted, Abs format (unit mm)*
G04 Created by KiCad (PCBNEW 9.0.2) date 2025-12-23 12:34:07*
%MOMM*%
%LPD*%
G01*
G04 APERTURE LIST*
G04 Aperture macros list*
%AMRoundRect*
0 Rectangle with rounded corners*
0 $1 Rounding radius*
0 $2 $3 $4 $5 $6 $7 $8 $9 X,Y pos of 4 corners*
0 Add a 4 corners polygon primitive as box body*
4,1,4,$2,$3,$4,$5,$6,$7,$8,$9,$2,$3,0*
0 Add four circle primitives for the rounded corners*
1,1,$1+$1,$2,$3*
1,1,$1+$1,$4,$5*
1,1,$1+$1,$6,$7*
1,1,$1+$1,$8,$9*
0 Add four rect primitives between the rounded corners*
20,1,$1+$1,$2,$3,$4,$5,0*
20,1,$1+$1,$4,$5,$6,$7,0*
20,1,$1+$1,$6,$7,$8,$9,0*
20,1,$1+$1,$8,$9,$2,$3,0*%
G04 Aperture macros list end*
%ADD10C,2.200000*%
%ADD11C,3.200000*%
%ADD12O,1.800000X1.000000*%
%ADD13O,2.100000X1.000000*%
%ADD14C,0.650000*%
%ADD15O,1.700000X1.700000*%
%ADD16R,1.700000X1.700000*%
%ADD17O,3.600000X1.800000*%
%ADD18RoundRect,0.250000X-1.550000X0.650000X-1.550000X-0.650000X1.550000X-0.650000X1.550000X0.650000X0*%
%ADD19O,2.000000X4.200000*%
%ADD20O,4.200000X2.000000*%
%ADD21R,4.600000X2.000000*%
%ADD22C,1.700000*%
%ADD23O,1.000000X2.100000*%
%ADD24O,1.000000X1.800000*%
G04 APERTURE END LIST*
D10*
%TO.C,H5*%
X118300000Y-117900000D03*
%TD*%
%TO.C,H6*%
X118300000Y-136300000D03*
%TD*%
D11*
%TO.C,H4*%
X112350000Y-149000000D03*
%TD*%
%TO.C,H3*%
X40600000Y-149000000D03*
%TD*%
%TO.C,H2*%
X104700000Y-54250000D03*
%TD*%
D12*
%TO.C,J7*%
X118375000Y-54880000D03*
D13*
X114195000Y-54880000D03*
D12*
X118375000Y-63520000D03*
D13*
X114195000Y-63520000D03*
D14*
X114695000Y-56310000D03*
X114695000Y-62090000D03*
%TD*%
D15*
%TO.C,J24*%
X72855000Y-100485000D03*
X72854999Y-103025000D03*
X70315000Y-100485000D03*
X70315000Y-103025000D03*
X67775000Y-100485000D03*
D16*
X67775000Y-103025000D03*
%TD*%
D17*
%TO.C,J1*%
X42519600Y-140614400D03*
X42519600Y-137199400D03*
X42519600Y-133389400D03*
X42519600Y-129579400D03*
X42519600Y-125769400D03*
X42519600Y-121959400D03*
X42519600Y-118149400D03*
X42519600Y-114339400D03*
X42519600Y-110529400D03*
X42519600Y-106719400D03*
X42519600Y-102909400D03*
X42519600Y-99099400D03*
X42519600Y-95289400D03*
X42519600Y-91479400D03*
X42519600Y-87669400D03*
X42519600Y-83859400D03*
X42519600Y-80049400D03*
X42519600Y-76239400D03*
X42519600Y-72429400D03*
D18*
X42519600Y-68619400D03*
%TD*%
D19*
%TO.C,J2*%
X67600000Y-142800000D03*
D20*
X62800000Y-146200000D03*
D21*
X62800000Y-139900000D03*
%TD*%
D16*
%TO.C,J22*%
X75475000Y-107800000D03*
D15*
X72935000Y-107800000D03*
%TD*%
D11*
%TO.C,H1*%
X41450000Y-54250000D03*
%TD*%
D16*
%TO.C,J8*%
X78900000Y-60380000D03*
D22*
X78900000Y-57840000D03*
X78900000Y-55300000D03*
X78900000Y-52760000D03*
%TD*%
D16*
%TO.C,J21*%
X109850000Y-116925000D03*
D15*
X109850000Y-119465000D03*
%TD*%
D16*
%TO.C,J20*%
X71060000Y-63440000D03*
D15*
X71060000Y-60900000D03*
X73600000Y-63440000D03*
X73600000Y-60900000D03*
%TD*%
D16*
%TO.C,J23*%
X59300000Y-117700000D03*
D15*
X61840000Y-117700000D03*
%TD*%
D16*
%TO.C,J11*%
X99580000Y-103000000D03*
D15*
X97040000Y-103000000D03*
X94500000Y-103000000D03*
%TD*%
D14*
%TO.C,J5*%
X90510000Y-147495000D03*
X96290000Y-147495000D03*
D23*
X89080000Y-146995000D03*
D24*
X89080000Y-151175000D03*
D23*
X97720000Y-146995000D03*
D24*
X97720000Y-151175000D03*
%TD*%
M02*
