%TF.GenerationSoftware,KiCad,Pcbnew,9.0.2*%
%TF.CreationDate,2025-12-23T12:34:07+01:00*%
%TF.ProjectId,HilBox,48696c42-6f78-42e6-9b69-6361645f7063,rev?*%
%TF.SameCoordinates,Original*%
%TF.FileFunction,Soldermask,Top*%
%TF.FilePolarity,Negative*%
%FSLAX46Y46*%
G04 Gerber Fmt 4.6, Leading zero omitted, Abs format (unit mm)*
G04 Created by KiCad (PCBNEW 9.0.2) date 2025-12-23 12:34:07*
%MOMM*%
%LPD*%
G01*
G04 APERTURE LIST*
G04 Aperture macros list*
%AMRoundRect*
0 Rectangle with rounded corners*
0 $1 Rounding radius*
0 $2 $3 $4 $5 $6 $7 $8 $9 X,Y pos of 4 corners*
0 Add a 4 corners polygon primitive as box body*
4,1,4,$2,$3,$4,$5,$6,$7,$8,$9,$2,$3,0*
0 Add four circle primitives for the rounded corners*
1,1,$1+$1,$2,$3*
1,1,$1+$1,$4,$5*
1,1,$1+$1,$6,$7*
1,1,$1+$1,$8,$9*
0 Add four rect primitives between the rounded corners*
20,1,$1+$1,$2,$3,$4,$5,0*
20,1,$1+$1,$4,$5,$6,$7,0*
20,1,$1+$1,$6,$7,$8,$9,0*
20,1,$1+$1,$8,$9,$2,$3,0*%
%AMRotRect*
0 Rectangle, with rotation*
0 The origin of the aperture is its center*
0 $1 length*
0 $2 width*
0 $3 Rotation angle, in degrees counterclockwise*
0 Add horizontal line*
21,1,$1,$2,0,0,$3*%
G04 Aperture macros list end*
%ADD10C,2.200000*%
%ADD11C,3.200000*%
%ADD12RoundRect,0.102000X0.400000X0.900000X-0.400000X0.900000X-0.400000X-0.900000X0.400000X-0.900000X0*%
%ADD13RoundRect,0.200000X-0.200000X-0.275000X0.200000X-0.275000X0.200000X0.275000X-0.200000X0.275000X0*%
%ADD14RoundRect,0.140000X-0.170000X0.140000X-0.170000X-0.140000X0.170000X-0.140000X0.170000X0.140000X0*%
%ADD15RoundRect,0.250000X-0.970000X-0.310000X0.970000X-0.310000X0.970000X0.310000X-0.970000X0.310000X0*%
%ADD16RoundRect,0.218750X-0.218750X-0.256250X0.218750X-0.256250X0.218750X0.256250X-0.218750X0.256250X0*%
%ADD17RoundRect,0.200000X0.200000X0.275000X-0.200000X0.275000X-0.200000X-0.275000X0.200000X-0.275000X0*%
%ADD18R,1.750000X0.450000*%
%ADD19O,1.800000X1.000000*%
%ADD20O,2.100000X1.000000*%
%ADD21RoundRect,0.150000X0.425000X-0.150000X0.425000X0.150000X-0.425000X0.150000X-0.425000X-0.150000X0*%
%ADD22RoundRect,0.075000X0.500000X-0.075000X0.500000X0.075000X-0.500000X0.075000X-0.500000X-0.075000X0*%
%ADD23C,0.650000*%
%ADD24RoundRect,0.200000X0.275000X-0.200000X0.275000X0.200000X-0.275000X0.200000X-0.275000X-0.200000X0*%
%ADD25RoundRect,0.200000X-0.275000X0.200000X-0.275000X-0.200000X0.275000X-0.200000X0.275000X0.200000X0*%
%ADD26RoundRect,0.250000X0.625000X-0.312500X0.625000X0.312500X-0.625000X0.312500X-0.625000X-0.312500X0*%
%ADD27RoundRect,0.135000X0.135000X0.185000X-0.135000X0.185000X-0.135000X-0.185000X0.135000X-0.185000X0*%
%ADD28RoundRect,0.135000X-0.135000X-0.185000X0.135000X-0.185000X0.135000X0.185000X-0.135000X0.185000X0*%
%ADD29RoundRect,0.250000X-0.325000X-0.650000X0.325000X-0.650000X0.325000X0.650000X-0.325000X0.650000X0*%
%ADD30O,1.700000X1.700000*%
%ADD31R,1.700000X1.700000*%
%ADD32RoundRect,0.100000X-0.225000X-0.100000X0.225000X-0.100000X0.225000X0.100000X-0.225000X0.100000X0*%
%ADD33RoundRect,0.218750X-0.256250X0.218750X-0.256250X-0.218750X0.256250X-0.218750X0.256250X0.218750X0*%
%ADD34RoundRect,0.218750X0.218750X0.256250X-0.218750X0.256250X-0.218750X-0.256250X0.218750X-0.256250X0*%
%ADD35RoundRect,0.140000X0.170000X-0.140000X0.170000X0.140000X-0.170000X0.140000X-0.170000X-0.140000X0*%
%ADD36O,3.600000X1.800000*%
%ADD37RoundRect,0.250000X-1.550000X0.650000X-1.550000X-0.650000X1.550000X-0.650000X1.550000X0.650000X0*%
%ADD38RoundRect,0.140000X-0.021213X0.219203X-0.219203X0.021213X0.021213X-0.219203X0.219203X-0.021213X0*%
%ADD39RoundRect,0.225000X-0.375000X0.225000X-0.375000X-0.225000X0.375000X-0.225000X0.375000X0.225000X0*%
%ADD40O,2.000000X4.200000*%
%ADD41O,4.200000X2.000000*%
%ADD42R,4.600000X2.000000*%
%ADD43RoundRect,0.250000X-1.250000X-0.550000X1.250000X-0.550000X1.250000X0.550000X-1.250000X0.550000X0*%
%ADD44RoundRect,0.100000X0.100000X-0.225000X0.100000X0.225000X-0.100000X0.225000X-0.100000X-0.225000X0*%
%ADD45R,1.100000X2.000000*%
%ADD46RoundRect,0.250000X0.325000X0.650000X-0.325000X0.650000X-0.325000X-0.650000X0.325000X-0.650000X0*%
%ADD47RoundRect,0.135000X0.185000X-0.135000X0.185000X0.135000X-0.185000X0.135000X-0.185000X-0.135000X0*%
%ADD48RoundRect,0.250000X0.650000X-0.325000X0.650000X0.325000X-0.650000X0.325000X-0.650000X-0.325000X0*%
%ADD49RoundRect,0.150000X0.825000X0.150000X-0.825000X0.150000X-0.825000X-0.150000X0.825000X-0.150000X0*%
%ADD50RoundRect,0.140000X-0.140000X-0.170000X0.140000X-0.170000X0.140000X0.170000X-0.140000X0.170000X0*%
%ADD51RoundRect,0.218750X0.256250X-0.218750X0.256250X0.218750X-0.256250X0.218750X-0.256250X-0.218750X0*%
%ADD52RoundRect,0.250000X1.450000X-0.312500X1.450000X0.312500X-1.450000X0.312500X-1.450000X-0.312500X0*%
%ADD53RoundRect,0.140000X-0.219203X-0.021213X-0.021213X-0.219203X0.219203X0.021213X0.021213X0.219203X0*%
%ADD54RoundRect,0.250000X1.000000X-1.950000X1.000000X1.950000X-1.000000X1.950000X-1.000000X-1.950000X0*%
%ADD55RoundRect,0.150000X0.150000X-0.825000X0.150000X0.825000X-0.150000X0.825000X-0.150000X-0.825000X0*%
%ADD56RoundRect,0.250000X-1.075000X0.312500X-1.075000X-0.312500X1.075000X-0.312500X1.075000X0.312500X0*%
%ADD57RoundRect,0.250000X-1.000000X-0.650000X1.000000X-0.650000X1.000000X0.650000X-1.000000X0.650000X0*%
%ADD58RoundRect,0.140000X0.140000X0.170000X-0.140000X0.170000X-0.140000X-0.170000X0.140000X-0.170000X0*%
%ADD59RoundRect,0.125000X-0.125000X0.687500X-0.125000X-0.687500X0.125000X-0.687500X0.125000X0.687500X0*%
%ADD60C,1.700000*%
%ADD61RoundRect,0.150000X-0.150000X0.825000X-0.150000X-0.825000X0.150000X-0.825000X0.150000X0.825000X0*%
%ADD62RoundRect,0.140000X0.021213X-0.219203X0.219203X-0.021213X-0.021213X0.219203X-0.219203X0.021213X0*%
%ADD63RotRect,0.900000X0.800000X315.000000*%
%ADD64RoundRect,0.125000X0.687500X0.125000X-0.687500X0.125000X-0.687500X-0.125000X0.687500X-0.125000X0*%
%ADD65RoundRect,0.135000X-0.185000X0.135000X-0.185000X-0.135000X0.185000X-0.135000X0.185000X0.135000X0*%
%ADD66RoundRect,0.150000X-0.150000X-0.425000X0.150000X-0.425000X0.150000X0.425000X-0.150000X0.425000X0*%
%ADD67RoundRect,0.075000X-0.075000X-0.500000X0.075000X-0.500000X0.075000X0.500000X-0.075000X0.500000X0*%
%ADD68O,1.000000X2.100000*%
%ADD69O,1.000000X1.800000*%
%ADD70R,3.500000X2.950000*%
%ADD71RoundRect,0.250000X0.550000X-1.250000X0.550000X1.250000X-0.550000X1.250000X-0.550000X-1.250000X0*%
%ADD72RoundRect,0.250000X1.075000X-0.312500X1.075000X0.312500X-1.075000X0.312500X-1.075000X-0.312500X0*%
%ADD73R,2.950000X3.500000*%
%ADD74RoundRect,0.150000X-0.512500X-0.150000X0.512500X-0.150000X0.512500X0.150000X-0.512500X0.150000X0*%
%ADD75RoundRect,0.135000X-0.035355X0.226274X-0.226274X0.035355X0.035355X-0.226274X0.226274X-0.035355X0*%
%ADD76RoundRect,0.250000X1.500000X0.550000X-1.500000X0.550000X-1.500000X-0.550000X1.500000X-0.550000X0*%
%ADD77RoundRect,0.250000X-0.650000X1.000000X-0.650000X-1.000000X0.650000X-1.000000X0.650000X1.000000X0*%
%ADD78RoundRect,0.250000X0.850000X-0.375000X0.850000X0.375000X-0.850000X0.375000X-0.850000X-0.375000X0*%
%ADD79RoundRect,0.250000X1.950000X1.000000X-1.950000X1.000000X-1.950000X-1.000000X1.950000X-1.000000X0*%
%ADD80RoundRect,0.075000X0.459619X0.565685X-0.565685X-0.459619X-0.459619X-0.565685X0.565685X0.459619X0*%
%ADD81RoundRect,0.075000X-0.459619X0.565685X-0.565685X0.459619X0.459619X-0.565685X0.565685X-0.459619X0*%
G04 APERTURE END LIST*
D10*
%TO.C,H5*%
X118300000Y-117900000D03*
%TD*%
%TO.C,H6*%
X118300000Y-136300000D03*
%TD*%
D11*
%TO.C,H4*%
X112350000Y-149000000D03*
%TD*%
%TO.C,H3*%
X40600000Y-149000000D03*
%TD*%
D12*
%TO.C,K4*%
X55210000Y-55862500D03*
X52670000Y-55862500D03*
X50130000Y-55862500D03*
X47590000Y-55862500D03*
X47590000Y-62862500D03*
X50130000Y-62862500D03*
X52670000Y-62862500D03*
X55210000Y-62862500D03*
%TD*%
D13*
%TO.C,R14*%
X82275000Y-55400000D03*
X83925000Y-55400000D03*
%TD*%
D14*
%TO.C,C7*%
X76300000Y-52220000D03*
X76300000Y-53180000D03*
%TD*%
D11*
%TO.C,H2*%
X104700000Y-54250000D03*
%TD*%
D15*
%TO.C,SW1*%
X118655000Y-69500000D03*
X118655000Y-72040000D03*
X118655000Y-74580000D03*
X118655000Y-77120000D03*
X118655000Y-79660000D03*
X118655000Y-82200000D03*
X110045000Y-82200000D03*
X110045000Y-79660000D03*
X110045000Y-77120000D03*
X110045000Y-74580000D03*
X110045000Y-72040000D03*
X110045000Y-69500000D03*
%TD*%
D16*
%TO.C,D7*%
X119537500Y-114300000D03*
X117962500Y-114300000D03*
%TD*%
D17*
%TO.C,R27*%
X117875000Y-112400000D03*
X119525000Y-112400000D03*
%TD*%
D18*
%TO.C,U12*%
X86300000Y-53175000D03*
X86300000Y-53825000D03*
X86300000Y-54475000D03*
X86300000Y-55125000D03*
X86300000Y-55775000D03*
X86300000Y-56425000D03*
X86300000Y-57075000D03*
X86300000Y-57725000D03*
X86300000Y-58375000D03*
X86300000Y-59025000D03*
X86300000Y-59675000D03*
X86300000Y-60325000D03*
X86300000Y-60975000D03*
X86300000Y-61625000D03*
X93500000Y-61625000D03*
X93500000Y-60975000D03*
X93500000Y-60325000D03*
X93500000Y-59675000D03*
X93500000Y-59025000D03*
X93500000Y-58375000D03*
X93500000Y-57725000D03*
X93500000Y-57075000D03*
X93500000Y-56425000D03*
X93500000Y-55775000D03*
X93500000Y-55125000D03*
X93500000Y-54475000D03*
X93500000Y-53825000D03*
X93500000Y-53175000D03*
%TD*%
D19*
%TO.C,J7*%
X118375000Y-54880000D03*
D20*
X114195000Y-54880000D03*
D19*
X118375000Y-63520000D03*
D20*
X114195000Y-63520000D03*
D21*
X113620000Y-62400000D03*
X113620000Y-61600000D03*
D22*
X113620000Y-60950000D03*
X113620000Y-59950000D03*
X113620000Y-58450000D03*
X113620000Y-57450000D03*
D21*
X113620000Y-56800000D03*
X113620000Y-56000000D03*
X113620000Y-56000000D03*
X113620000Y-56800000D03*
D22*
X113620000Y-57950000D03*
X113620000Y-58950000D03*
X113620000Y-59450000D03*
X113620000Y-60450000D03*
D21*
X113620000Y-61600000D03*
X113620000Y-62400000D03*
D23*
X114695000Y-56310000D03*
X114695000Y-62090000D03*
%TD*%
D14*
%TO.C,C17*%
X114400000Y-66110000D03*
X114400000Y-65150000D03*
%TD*%
D17*
%TO.C,R20*%
X115775000Y-65400000D03*
X117425000Y-65400000D03*
%TD*%
D14*
%TO.C,C16*%
X118900000Y-66230000D03*
X118900000Y-65270000D03*
%TD*%
%TO.C,C15*%
X109150000Y-64580000D03*
X109150000Y-63620000D03*
%TD*%
D24*
%TO.C,R17*%
X111050000Y-62025000D03*
X111050000Y-63675000D03*
%TD*%
D16*
%TO.C,D11*%
X119537500Y-151150000D03*
X117962500Y-151150000D03*
%TD*%
D17*
%TO.C,R31*%
X117925000Y-149350000D03*
X119575000Y-149350000D03*
%TD*%
D16*
%TO.C,D10*%
X119537500Y-141800000D03*
X117962500Y-141800000D03*
%TD*%
D25*
%TO.C,R16*%
X109300000Y-56125000D03*
X109300000Y-54475000D03*
%TD*%
%TO.C,R43*%
X108600000Y-93725000D03*
X108600000Y-92075000D03*
%TD*%
D26*
%TO.C,R40*%
X110050000Y-98812500D03*
X110050000Y-95887500D03*
%TD*%
%TO.C,R39*%
X114850000Y-98812500D03*
X114850000Y-95887500D03*
%TD*%
%TO.C,R38*%
X112450000Y-98812500D03*
X112450000Y-95887500D03*
%TD*%
D27*
%TO.C,R193*%
X90890000Y-73350000D03*
X91910000Y-73350000D03*
%TD*%
D28*
%TO.C,R113*%
X62490000Y-125600000D03*
X63510000Y-125600000D03*
%TD*%
D26*
%TO.C,R83*%
X57950000Y-129062500D03*
X57950000Y-126137500D03*
%TD*%
%TO.C,R82*%
X60350000Y-129112500D03*
X60350000Y-126187500D03*
%TD*%
D29*
%TO.C,C116*%
X69275000Y-107100000D03*
X66325000Y-107100000D03*
%TD*%
D30*
%TO.C,J24*%
X72855000Y-100485000D03*
X72854999Y-103025000D03*
X70315000Y-100485000D03*
X70315000Y-103025000D03*
X67775000Y-100485000D03*
D31*
X67775000Y-103025000D03*
%TD*%
D24*
%TO.C,R69*%
X57700000Y-83175000D03*
X57700000Y-84825000D03*
%TD*%
D13*
%TO.C,R66*%
X67825000Y-73100000D03*
X66175000Y-73100000D03*
%TD*%
D32*
%TO.C,Q9*%
X59450000Y-91350000D03*
X59450000Y-92000000D03*
X59450000Y-92650000D03*
X57550000Y-92650000D03*
X57550000Y-92000000D03*
X57550000Y-91350000D03*
%TD*%
D13*
%TO.C,R65*%
X67825000Y-74700000D03*
X66175000Y-74700000D03*
%TD*%
%TO.C,R164*%
X67825000Y-77900000D03*
X66175000Y-77900000D03*
%TD*%
%TO.C,R64*%
X59225000Y-94800000D03*
X57575000Y-94800000D03*
%TD*%
%TO.C,R165*%
X67825000Y-76300000D03*
X66175000Y-76300000D03*
%TD*%
D33*
%TO.C,D15*%
X59400000Y-61137500D03*
X59400000Y-62712500D03*
%TD*%
%TO.C,D14*%
X59400000Y-72112500D03*
X59400000Y-73687500D03*
%TD*%
%TO.C,D12*%
X59500000Y-83212500D03*
X59500000Y-84787500D03*
%TD*%
D34*
%TO.C,D3*%
X62587500Y-94800000D03*
X61012500Y-94800000D03*
%TD*%
D28*
%TO.C,R13*%
X77840000Y-79900000D03*
X78860000Y-79900000D03*
%TD*%
D14*
%TO.C,C5*%
X45550000Y-118070000D03*
X45550000Y-119030000D03*
%TD*%
D35*
%TO.C,C3*%
X45550000Y-116330000D03*
X45550000Y-115370000D03*
%TD*%
D36*
%TO.C,J1*%
X42519600Y-140614400D03*
X42519600Y-137199400D03*
X42519600Y-133389400D03*
X42519600Y-129579400D03*
X42519600Y-125769400D03*
X42519600Y-121959400D03*
X42519600Y-118149400D03*
X42519600Y-114339400D03*
X42519600Y-110529400D03*
X42519600Y-106719400D03*
X42519600Y-102909400D03*
X42519600Y-99099400D03*
X42519600Y-95289400D03*
X42519600Y-91479400D03*
X42519600Y-87669400D03*
X42519600Y-83859400D03*
X42519600Y-80049400D03*
X42519600Y-76239400D03*
X42519600Y-72429400D03*
D37*
X42519600Y-68619400D03*
%TD*%
D38*
%TO.C,C101*%
X75810589Y-88439411D03*
X76489411Y-87760589D03*
%TD*%
D28*
%TO.C,R125*%
X78860000Y-80950000D03*
X77840000Y-80950000D03*
%TD*%
%TO.C,R166*%
X78860000Y-82000000D03*
X77840000Y-82000000D03*
%TD*%
D39*
%TO.C,D21*%
X58100000Y-64250000D03*
X58100000Y-67550000D03*
%TD*%
%TO.C,D19*%
X58000000Y-75350000D03*
X58000000Y-78650000D03*
%TD*%
%TO.C,D16*%
X58000000Y-86450000D03*
X58000000Y-89750000D03*
%TD*%
%TO.C,D4*%
X58250000Y-52850000D03*
X58250000Y-56150000D03*
%TD*%
D24*
%TO.C,R12*%
X57700000Y-62750000D03*
X57700000Y-61100000D03*
%TD*%
D13*
%TO.C,R11*%
X61150000Y-53500000D03*
X62800000Y-53500000D03*
%TD*%
%TO.C,R10*%
X61150000Y-58600000D03*
X62800000Y-58600000D03*
%TD*%
%TO.C,R9*%
X61150000Y-56900000D03*
X62800000Y-56900000D03*
%TD*%
%TO.C,R8*%
X61150000Y-55100000D03*
X62800000Y-55100000D03*
%TD*%
D32*
%TO.C,Q3*%
X57700000Y-58150000D03*
X57700000Y-58800000D03*
X57700000Y-59450000D03*
X59600000Y-59450000D03*
X59600000Y-58800000D03*
X59600000Y-58150000D03*
%TD*%
D40*
%TO.C,J2*%
X67600000Y-142800000D03*
D41*
X62800000Y-146200000D03*
D42*
X62800000Y-139900000D03*
%TD*%
D14*
%TO.C,C22*%
X45600000Y-141580000D03*
X45600000Y-140620000D03*
%TD*%
D35*
%TO.C,C48*%
X45400000Y-121720000D03*
X45400000Y-122680000D03*
%TD*%
D24*
%TO.C,R85*%
X56100000Y-119875000D03*
X56100000Y-121525000D03*
%TD*%
D43*
%TO.C,C60*%
X105900000Y-109600000D03*
X101500000Y-109600000D03*
%TD*%
D25*
%TO.C,R51*%
X110600000Y-107575000D03*
X110600000Y-109225000D03*
%TD*%
D17*
%TO.C,R50*%
X110625000Y-105950000D03*
X108975000Y-105950000D03*
%TD*%
D25*
%TO.C,R49*%
X113650000Y-101225000D03*
X113650000Y-102875000D03*
%TD*%
%TO.C,R48*%
X112000000Y-101225000D03*
X112000000Y-102875000D03*
%TD*%
D24*
%TO.C,R46*%
X108600000Y-90625000D03*
X108600000Y-88975000D03*
%TD*%
D25*
%TO.C,R45*%
X116150000Y-91575000D03*
X116150000Y-93225000D03*
%TD*%
%TO.C,R44*%
X108000000Y-95275000D03*
X108000000Y-96925000D03*
%TD*%
D17*
%TO.C,R42*%
X107275000Y-102700000D03*
X105625000Y-102700000D03*
%TD*%
D13*
%TO.C,R41*%
X105625000Y-104450000D03*
X107275000Y-104450000D03*
%TD*%
D32*
%TO.C,Q2*%
X112650000Y-104950000D03*
X112650000Y-105600000D03*
X112650000Y-106250000D03*
X114550000Y-106250000D03*
X114550000Y-105600000D03*
X114550000Y-104950000D03*
%TD*%
D44*
%TO.C,Q1*%
X109050000Y-102250000D03*
X109700000Y-102250000D03*
X110350000Y-102250000D03*
X110350000Y-100350000D03*
X109700000Y-100350000D03*
X109050000Y-100350000D03*
%TD*%
D45*
%TO.C,D13*%
X110500000Y-93250000D03*
X112200000Y-93250000D03*
X113900000Y-93250000D03*
X113900000Y-88450000D03*
X112200000Y-88450000D03*
X110500000Y-88450000D03*
%TD*%
D46*
%TO.C,C95*%
X99825000Y-148200000D03*
X102775000Y-148200000D03*
%TD*%
D17*
%TO.C,R32*%
X107775000Y-65200000D03*
X106125000Y-65200000D03*
%TD*%
D47*
%TO.C,R161*%
X71035000Y-67075000D03*
X71035000Y-66055000D03*
%TD*%
D17*
%TO.C,R3*%
X61225000Y-97800000D03*
X59575000Y-97800000D03*
%TD*%
%TO.C,R148*%
X48425000Y-116450000D03*
X46775000Y-116450000D03*
%TD*%
D13*
%TO.C,R105*%
X79975000Y-117900000D03*
X81625000Y-117900000D03*
%TD*%
D17*
%TO.C,R15*%
X118625000Y-53050000D03*
X116975000Y-53050000D03*
%TD*%
D35*
%TO.C,C6*%
X45800000Y-99480000D03*
X45800000Y-98520000D03*
%TD*%
D48*
%TO.C,C115*%
X83100000Y-109775000D03*
X83100000Y-106825000D03*
%TD*%
D49*
%TO.C,U28*%
X55425000Y-126905000D03*
X55425000Y-125635000D03*
X55425000Y-124365000D03*
X55425000Y-123095000D03*
X50475000Y-123095000D03*
X50475000Y-124365000D03*
X50475000Y-125635000D03*
X50475000Y-126905000D03*
%TD*%
D17*
%TO.C,R110*%
X65225000Y-128300000D03*
X63575000Y-128300000D03*
%TD*%
D50*
%TO.C,C59*%
X92820000Y-125150000D03*
X93780000Y-125150000D03*
%TD*%
D51*
%TO.C,D5*%
X96100000Y-56387500D03*
X96100000Y-54812500D03*
%TD*%
D17*
%TO.C,R115*%
X64025000Y-106700000D03*
X62375000Y-106700000D03*
%TD*%
D13*
%TO.C,R98*%
X92475000Y-126600000D03*
X94125000Y-126600000D03*
%TD*%
D31*
%TO.C,J22*%
X75475000Y-107800000D03*
D30*
X72935000Y-107800000D03*
%TD*%
D17*
%TO.C,R36*%
X107775000Y-71750000D03*
X106125000Y-71750000D03*
%TD*%
D52*
%TO.C,F1*%
X78750000Y-147137500D03*
X78750000Y-142862500D03*
%TD*%
D53*
%TO.C,C85*%
X92500000Y-81700000D03*
X93178822Y-82378822D03*
%TD*%
D51*
%TO.C,D36*%
X79050000Y-103237500D03*
X79050000Y-101662500D03*
%TD*%
D27*
%TO.C,R163*%
X72745000Y-58465000D03*
X71725000Y-58465000D03*
%TD*%
D17*
%TO.C,R144*%
X101325000Y-146100000D03*
X99675000Y-146100000D03*
%TD*%
D54*
%TO.C,C54*%
X86500000Y-143450000D03*
X86500000Y-136050000D03*
%TD*%
D17*
%TO.C,R37*%
X107775000Y-73450000D03*
X106125000Y-73450000D03*
%TD*%
D35*
%TO.C,C70*%
X66325000Y-119480000D03*
X66325000Y-118520000D03*
%TD*%
D50*
%TO.C,C18*%
X100020000Y-58550000D03*
X100980000Y-58550000D03*
%TD*%
D55*
%TO.C,U4*%
X91995000Y-142875000D03*
X93265000Y-142875000D03*
X94535000Y-142875000D03*
X95805000Y-142875000D03*
X95805000Y-137925000D03*
X94535000Y-137925000D03*
X93265000Y-137925000D03*
X91995000Y-137925000D03*
%TD*%
D17*
%TO.C,R28*%
X119625000Y-121600000D03*
X117975000Y-121600000D03*
%TD*%
D56*
%TO.C,R87*%
X47550000Y-123387500D03*
X47550000Y-126312500D03*
%TD*%
D25*
%TO.C,R130*%
X77450000Y-98375000D03*
X77450000Y-100025000D03*
%TD*%
%TO.C,R157*%
X90650000Y-101975000D03*
X90650000Y-103625000D03*
%TD*%
D14*
%TO.C,C63*%
X84300000Y-125220000D03*
X84300000Y-126180000D03*
%TD*%
D25*
%TO.C,R184*%
X45700000Y-107175000D03*
X45700000Y-108825000D03*
%TD*%
D57*
%TO.C,D28*%
X85300000Y-121700000D03*
X89300000Y-121700000D03*
%TD*%
D24*
%TO.C,R101*%
X97900000Y-131125000D03*
X97900000Y-129475000D03*
%TD*%
D28*
%TO.C,R162*%
X72825000Y-66165000D03*
X73845000Y-66165000D03*
%TD*%
D58*
%TO.C,C71*%
X70280000Y-109400000D03*
X69320000Y-109400000D03*
%TD*%
D50*
%TO.C,C73*%
X62520000Y-124400000D03*
X63480000Y-124400000D03*
%TD*%
D24*
%TO.C,R104*%
X78850000Y-121375000D03*
X78850000Y-119725000D03*
%TD*%
D35*
%TO.C,C42*%
X104500000Y-132030000D03*
X104500000Y-131070000D03*
%TD*%
%TO.C,C20*%
X100300000Y-55480000D03*
X100300000Y-54520000D03*
%TD*%
D49*
%TO.C,U27*%
X58825000Y-134605000D03*
X58825000Y-133335000D03*
X58825000Y-132065000D03*
X58825000Y-130795000D03*
X53875000Y-130795000D03*
X53875000Y-132065000D03*
X53875000Y-133335000D03*
X53875000Y-134605000D03*
%TD*%
D11*
%TO.C,H1*%
X41450000Y-54250000D03*
%TD*%
D58*
%TO.C,C96*%
X90980000Y-144700000D03*
X90020000Y-144700000D03*
%TD*%
D17*
%TO.C,R142*%
X101325000Y-150500000D03*
X99675000Y-150500000D03*
%TD*%
D28*
%TO.C,R18*%
X95090000Y-133400000D03*
X96110000Y-133400000D03*
%TD*%
D17*
%TO.C,R35*%
X107775000Y-70100000D03*
X106125000Y-70100000D03*
%TD*%
D49*
%TO.C,U11*%
X108175000Y-62355000D03*
X108175000Y-61085000D03*
X108175000Y-59815000D03*
X108175000Y-58545000D03*
X103225000Y-58545000D03*
X103225000Y-59815000D03*
X103225000Y-61085000D03*
X103225000Y-62355000D03*
%TD*%
D25*
%TO.C,R114*%
X63650000Y-129875000D03*
X63650000Y-131525000D03*
%TD*%
D59*
%TO.C,U31*%
X66800000Y-121387500D03*
X66150000Y-121387500D03*
X65500000Y-121387500D03*
X64850000Y-121387500D03*
X64850000Y-125612500D03*
X65500000Y-125612500D03*
X66150000Y-125612500D03*
X66800000Y-125612500D03*
%TD*%
D24*
%TO.C,R124*%
X106600000Y-151325000D03*
X106600000Y-149675000D03*
%TD*%
D50*
%TO.C,C69*%
X68345000Y-125350000D03*
X69305000Y-125350000D03*
%TD*%
D16*
%TO.C,D8*%
X117962500Y-123350000D03*
X119537500Y-123350000D03*
%TD*%
D14*
%TO.C,C40*%
X97300000Y-138820000D03*
X97300000Y-139780000D03*
%TD*%
D25*
%TO.C,R116*%
X106950000Y-130550000D03*
X106950000Y-128900000D03*
%TD*%
D13*
%TO.C,R146*%
X109075000Y-138275000D03*
X110725000Y-138275000D03*
%TD*%
D31*
%TO.C,J8*%
X78900000Y-60380000D03*
D60*
X78900000Y-57840000D03*
X78900000Y-55300000D03*
X78900000Y-52760000D03*
%TD*%
D25*
%TO.C,R2*%
X67850000Y-89525000D03*
X67850000Y-91175000D03*
%TD*%
D13*
%TO.C,R178*%
X61375000Y-69700000D03*
X63025000Y-69700000D03*
%TD*%
D50*
%TO.C,C77*%
X107730000Y-131925000D03*
X106770000Y-131925000D03*
%TD*%
%TO.C,C43*%
X60770000Y-132100000D03*
X61730000Y-132100000D03*
%TD*%
D25*
%TO.C,R7*%
X65250000Y-86225000D03*
X65250000Y-87875000D03*
%TD*%
D27*
%TO.C,R172*%
X76160000Y-101000000D03*
X75140000Y-101000000D03*
%TD*%
D50*
%TO.C,C65*%
X82620000Y-111400000D03*
X83580000Y-111400000D03*
%TD*%
D17*
%TO.C,R122*%
X48425000Y-118200000D03*
X46775000Y-118200000D03*
%TD*%
D25*
%TO.C,R1*%
X70700000Y-89575000D03*
X70700000Y-91225000D03*
%TD*%
D28*
%TO.C,R195*%
X95090000Y-134600000D03*
X96110000Y-134600000D03*
%TD*%
D61*
%TO.C,U2*%
X70855000Y-82525000D03*
X69585000Y-82525000D03*
X68315000Y-82525000D03*
X67045000Y-82525000D03*
X67045000Y-87475000D03*
X68315000Y-87475000D03*
X69585000Y-87475000D03*
X70855000Y-87475000D03*
%TD*%
D13*
%TO.C,R71*%
X61375000Y-66500000D03*
X63025000Y-66500000D03*
%TD*%
D25*
%TO.C,R129*%
X79050000Y-98375000D03*
X79050000Y-100025000D03*
%TD*%
D28*
%TO.C,R127*%
X70330000Y-98100000D03*
X71350000Y-98100000D03*
%TD*%
D13*
%TO.C,R175*%
X61375000Y-78600000D03*
X63025000Y-78600000D03*
%TD*%
D51*
%TO.C,D6*%
X97800000Y-56400000D03*
X97800000Y-54825000D03*
%TD*%
D53*
%TO.C,C81*%
X87260589Y-101060589D03*
X87939411Y-101739411D03*
%TD*%
D17*
%TO.C,R108*%
X80125000Y-107500000D03*
X78475000Y-107500000D03*
%TD*%
D28*
%TO.C,R22*%
X99990000Y-57350000D03*
X101010000Y-57350000D03*
%TD*%
D58*
%TO.C,C88*%
X92680000Y-79800000D03*
X91720000Y-79800000D03*
%TD*%
D62*
%TO.C,C83*%
X99060589Y-88239411D03*
X99739411Y-87560589D03*
%TD*%
D35*
%TO.C,C84*%
X85900000Y-78580000D03*
X85900000Y-77620000D03*
%TD*%
D25*
%TO.C,R107*%
X77700000Y-127775000D03*
X77700000Y-129425000D03*
%TD*%
D51*
%TO.C,D35*%
X80650000Y-103237500D03*
X80650000Y-101662500D03*
%TD*%
D17*
%TO.C,R96*%
X96225000Y-129100000D03*
X94575000Y-129100000D03*
%TD*%
D28*
%TO.C,R174*%
X102190000Y-132300000D03*
X103210000Y-132300000D03*
%TD*%
D13*
%TO.C,R106*%
X77475000Y-126000000D03*
X79125000Y-126000000D03*
%TD*%
D31*
%TO.C,J21*%
X109850000Y-116925000D03*
D30*
X109850000Y-119465000D03*
%TD*%
D13*
%TO.C,R176*%
X61375000Y-80300000D03*
X63025000Y-80300000D03*
%TD*%
D38*
%TO.C,C82*%
X76845135Y-89908954D03*
X76166313Y-90587776D03*
%TD*%
D25*
%TO.C,R99*%
X92500000Y-128175000D03*
X92500000Y-129825000D03*
%TD*%
D14*
%TO.C,C47*%
X92000000Y-102170000D03*
X92000000Y-103130000D03*
%TD*%
D59*
%TO.C,U30*%
X82775000Y-121787500D03*
X82125000Y-121787500D03*
X81475000Y-121787500D03*
X80825000Y-121787500D03*
X80825000Y-126012500D03*
X81475000Y-126012500D03*
X82125000Y-126012500D03*
X82775000Y-126012500D03*
%TD*%
D63*
%TO.C,Y1*%
X97116117Y-79493934D03*
X98106066Y-80483883D03*
X98883883Y-79706066D03*
X97893934Y-78716117D03*
%TD*%
D64*
%TO.C,U24*%
X56612500Y-98975000D03*
X56612500Y-98325000D03*
X56612500Y-97675000D03*
X56612500Y-97025000D03*
X52387500Y-97025000D03*
X52387500Y-97675000D03*
X52387500Y-98325000D03*
X52387500Y-98975000D03*
%TD*%
D50*
%TO.C,C106*%
X59370000Y-99300000D03*
X60330000Y-99300000D03*
%TD*%
D24*
%TO.C,R88*%
X52500000Y-121575000D03*
X52500000Y-119925000D03*
%TD*%
%TO.C,R109*%
X67000000Y-130225000D03*
X67000000Y-128575000D03*
%TD*%
D50*
%TO.C,C87*%
X90920000Y-76800000D03*
X91880000Y-76800000D03*
%TD*%
D58*
%TO.C,C64*%
X81780000Y-119400000D03*
X80820000Y-119400000D03*
%TD*%
D12*
%TO.C,K3*%
X55260000Y-67450000D03*
X52720000Y-67450000D03*
X50180000Y-67450000D03*
X47640000Y-67450000D03*
X47640000Y-74450000D03*
X50180000Y-74450000D03*
X52720000Y-74450000D03*
X55260000Y-74450000D03*
%TD*%
D25*
%TO.C,R156*%
X102200000Y-102125000D03*
X102200000Y-103775000D03*
%TD*%
D35*
%TO.C,C99*%
X84700000Y-78580000D03*
X84700000Y-77620000D03*
%TD*%
D58*
%TO.C,C41*%
X97180000Y-135700000D03*
X96220000Y-135700000D03*
%TD*%
D31*
%TO.C,J20*%
X71060000Y-63440000D03*
D30*
X71060000Y-60900000D03*
X73600000Y-63440000D03*
X73600000Y-60900000D03*
%TD*%
D31*
%TO.C,J23*%
X59300000Y-117700000D03*
D30*
X61840000Y-117700000D03*
%TD*%
D31*
%TO.C,J11*%
X99580000Y-103000000D03*
D30*
X97040000Y-103000000D03*
X94500000Y-103000000D03*
%TD*%
D35*
%TO.C,C4*%
X46000000Y-105880000D03*
X46000000Y-104920000D03*
%TD*%
D14*
%TO.C,C46*%
X103550000Y-102120000D03*
X103550000Y-103080000D03*
%TD*%
D16*
%TO.C,D33*%
X74862500Y-82650000D03*
X76437500Y-82650000D03*
%TD*%
D50*
%TO.C,C39*%
X109570000Y-139750000D03*
X110530000Y-139750000D03*
%TD*%
D28*
%TO.C,R167*%
X75140000Y-102300000D03*
X76160000Y-102300000D03*
%TD*%
D18*
%TO.C,U10*%
X106300000Y-142700000D03*
X106300000Y-142050000D03*
X106300000Y-141400000D03*
X106300000Y-140750000D03*
X106300000Y-140100000D03*
X106300000Y-139450000D03*
X106300000Y-138800000D03*
X106300000Y-138150000D03*
X106300000Y-137500000D03*
X106300000Y-136850000D03*
X106300000Y-136200000D03*
X106300000Y-135550000D03*
X106300000Y-134900000D03*
X106300000Y-134250000D03*
X99100000Y-134250000D03*
X99100000Y-134900000D03*
X99100000Y-135550000D03*
X99100000Y-136200000D03*
X99100000Y-136850000D03*
X99100000Y-137500000D03*
X99100000Y-138150000D03*
X99100000Y-138800000D03*
X99100000Y-139450000D03*
X99100000Y-140100000D03*
X99100000Y-140750000D03*
X99100000Y-141400000D03*
X99100000Y-142050000D03*
X99100000Y-142700000D03*
%TD*%
D17*
%TO.C,R29*%
X119575000Y-130750000D03*
X117925000Y-130750000D03*
%TD*%
D65*
%TO.C,R171*%
X75150000Y-97140000D03*
X75150000Y-98160000D03*
%TD*%
D13*
%TO.C,R143*%
X85425000Y-150250000D03*
X87075000Y-150250000D03*
%TD*%
D23*
%TO.C,J5*%
X90510000Y-147495000D03*
X96290000Y-147495000D03*
D66*
X90200000Y-146420000D03*
X91000000Y-146420000D03*
D67*
X92150000Y-146420000D03*
X93150000Y-146420000D03*
X93650000Y-146420000D03*
X94650000Y-146420000D03*
D66*
X95800000Y-146420000D03*
X96600000Y-146420000D03*
X96600000Y-146420000D03*
X95800000Y-146420000D03*
D67*
X95150000Y-146420000D03*
X94150000Y-146420000D03*
X92650000Y-146420000D03*
X91650000Y-146420000D03*
D66*
X91000000Y-146420000D03*
X90200000Y-146420000D03*
D68*
X89080000Y-146995000D03*
D69*
X89080000Y-151175000D03*
D68*
X97720000Y-146995000D03*
D69*
X97720000Y-151175000D03*
%TD*%
D58*
%TO.C,C61*%
X108580000Y-114200000D03*
X107620000Y-114200000D03*
%TD*%
D50*
%TO.C,C68*%
X66820000Y-127300000D03*
X67780000Y-127300000D03*
%TD*%
D17*
%TO.C,R81*%
X55025000Y-136300000D03*
X53375000Y-136300000D03*
%TD*%
D70*
%TO.C,L3*%
X71975000Y-117375000D03*
X71975000Y-111925000D03*
%TD*%
D28*
%TO.C,R118*%
X90890001Y-75650000D03*
X91909999Y-75650000D03*
%TD*%
D29*
%TO.C,C114*%
X107725000Y-112200000D03*
X110675000Y-112200000D03*
%TD*%
D35*
%TO.C,C14*%
X111700000Y-56400000D03*
X111700000Y-55440000D03*
%TD*%
D17*
%TO.C,R25*%
X83925000Y-57000000D03*
X82275000Y-57000000D03*
%TD*%
D71*
%TO.C,C74*%
X95800000Y-114100000D03*
X95800000Y-109700000D03*
%TD*%
D14*
%TO.C,C49*%
X45450000Y-126620000D03*
X45450000Y-127580000D03*
%TD*%
D59*
%TO.C,U29*%
X97775000Y-122237500D03*
X97125000Y-122237500D03*
X96475000Y-122237500D03*
X95825000Y-122237500D03*
X95825000Y-126462500D03*
X96475000Y-126462500D03*
X97125000Y-126462500D03*
X97775000Y-126462500D03*
%TD*%
D50*
%TO.C,C89*%
X90880589Y-74489411D03*
X91840589Y-74489411D03*
%TD*%
D17*
%TO.C,R147*%
X92625000Y-78400000D03*
X90975000Y-78400000D03*
%TD*%
D47*
%TO.C,R168*%
X73850000Y-98160000D03*
X73850000Y-97140000D03*
%TD*%
D72*
%TO.C,R86*%
X50800000Y-133962500D03*
X50800000Y-131037500D03*
%TD*%
D50*
%TO.C,C44*%
X53170000Y-129250000D03*
X54130000Y-129250000D03*
%TD*%
D25*
%TO.C,R6*%
X51700000Y-102825000D03*
X51700000Y-104475000D03*
%TD*%
D73*
%TO.C,L2*%
X89725000Y-115800000D03*
X84275000Y-115800000D03*
%TD*%
D25*
%TO.C,R185*%
X45700000Y-100825000D03*
X45700000Y-102475000D03*
%TD*%
%TO.C,R111*%
X63000000Y-121175000D03*
X63000000Y-122825000D03*
%TD*%
D74*
%TO.C,D52*%
X48137500Y-132300000D03*
X45862500Y-133250000D03*
X45862500Y-131350000D03*
%TD*%
D58*
%TO.C,C2*%
X70830000Y-80300000D03*
X69870000Y-80300000D03*
%TD*%
D13*
%TO.C,R145*%
X109175000Y-141200000D03*
X110825000Y-141200000D03*
%TD*%
D24*
%TO.C,R84*%
X54300000Y-121525000D03*
X54300000Y-119875000D03*
%TD*%
D13*
%TO.C,R177*%
X61375000Y-71400000D03*
X63025000Y-71400000D03*
%TD*%
D43*
%TO.C,C75*%
X86500000Y-108700000D03*
X90900000Y-108700000D03*
%TD*%
D17*
%TO.C,R34*%
X107775000Y-68450000D03*
X106125000Y-68450000D03*
%TD*%
%TO.C,R24*%
X83925000Y-53700000D03*
X82275000Y-53700000D03*
%TD*%
D62*
%TO.C,C98*%
X95860589Y-78739411D03*
X96539411Y-78060589D03*
%TD*%
D13*
%TO.C,R67*%
X61375000Y-76800000D03*
X63025000Y-76800000D03*
%TD*%
D75*
%TO.C,R117*%
X99260624Y-89539376D03*
X98539376Y-90260624D03*
%TD*%
D13*
%TO.C,R5*%
X54950000Y-100750000D03*
X56600000Y-100750000D03*
%TD*%
D27*
%TO.C,R19*%
X101110000Y-60850000D03*
X100090000Y-60850000D03*
%TD*%
D13*
%TO.C,R70*%
X61375000Y-68100000D03*
X63025000Y-68100000D03*
%TD*%
D24*
%TO.C,R123*%
X104800000Y-151375000D03*
X104800000Y-149725000D03*
%TD*%
D14*
%TO.C,C1*%
X51800000Y-100390000D03*
X51800000Y-101350000D03*
%TD*%
D73*
%TO.C,L1*%
X100475000Y-116800000D03*
X105925000Y-116800000D03*
%TD*%
D50*
%TO.C,C62*%
X83020000Y-127700000D03*
X83980000Y-127700000D03*
%TD*%
D25*
%TO.C,R100*%
X93600000Y-116475000D03*
X93600000Y-118125000D03*
%TD*%
D13*
%TO.C,R68*%
X61375000Y-75100000D03*
X63025000Y-75100000D03*
%TD*%
D24*
%TO.C,R72*%
X57600000Y-73725000D03*
X57600000Y-72075000D03*
%TD*%
D76*
%TO.C,C72*%
X64500000Y-111300000D03*
X58900000Y-111300000D03*
%TD*%
D13*
%TO.C,R112*%
X65225000Y-117100000D03*
X66875000Y-117100000D03*
%TD*%
D14*
%TO.C,C52*%
X81300000Y-143120000D03*
X81300000Y-144080000D03*
%TD*%
D25*
%TO.C,R23*%
X96100000Y-51675000D03*
X96100000Y-53325000D03*
%TD*%
D29*
%TO.C,C13*%
X112275000Y-52600000D03*
X115225000Y-52600000D03*
%TD*%
D16*
%TO.C,D34*%
X74812500Y-81000000D03*
X76387500Y-81000000D03*
%TD*%
D32*
%TO.C,Q10*%
X57550000Y-69150000D03*
X57550000Y-69800000D03*
X57550000Y-70450000D03*
X59450000Y-70450000D03*
X59450000Y-69800000D03*
X59450000Y-69150000D03*
%TD*%
D16*
%TO.C,D32*%
X74812500Y-79400000D03*
X76387500Y-79400000D03*
%TD*%
D50*
%TO.C,C76*%
X107530000Y-127525000D03*
X106570000Y-127525000D03*
%TD*%
D62*
%TO.C,C97*%
X99160589Y-81339411D03*
X99839411Y-80660589D03*
%TD*%
D77*
%TO.C,D1*%
X48400000Y-107800000D03*
X48400000Y-111800000D03*
%TD*%
D17*
%TO.C,R30*%
X119525000Y-140000000D03*
X117875000Y-140000000D03*
%TD*%
D53*
%TO.C,C80*%
X98960589Y-82860589D03*
X99639411Y-83539411D03*
%TD*%
D17*
%TO.C,R33*%
X107775000Y-66800000D03*
X106125000Y-66800000D03*
%TD*%
D33*
%TO.C,D30*%
X104750000Y-146462500D03*
X104750000Y-148037500D03*
%TD*%
D24*
%TO.C,R97*%
X94150000Y-122875000D03*
X94150000Y-121225000D03*
%TD*%
D14*
%TO.C,C45*%
X51850000Y-128370000D03*
X51850000Y-129330000D03*
%TD*%
D78*
%TO.C,L4*%
X80500000Y-140775000D03*
X80500000Y-138625000D03*
%TD*%
D50*
%TO.C,C58*%
X98120000Y-128200000D03*
X99080000Y-128200000D03*
%TD*%
D57*
%TO.C,D27*%
X100500000Y-122450000D03*
X104500000Y-122450000D03*
%TD*%
D35*
%TO.C,C57*%
X97000000Y-120180000D03*
X97000000Y-119220000D03*
%TD*%
D50*
%TO.C,C67*%
X77370000Y-124400000D03*
X78330000Y-124400000D03*
%TD*%
D53*
%TO.C,C100*%
X84910589Y-100910589D03*
X85589411Y-101589411D03*
%TD*%
D58*
%TO.C,C86*%
X73130000Y-105400000D03*
X72170000Y-105400000D03*
%TD*%
D50*
%TO.C,C56*%
X99420000Y-126450000D03*
X100380000Y-126450000D03*
%TD*%
D79*
%TO.C,C105*%
X77700000Y-135250000D03*
X70300000Y-135250000D03*
%TD*%
D35*
%TO.C,C78*%
X91700000Y-135980000D03*
X91700000Y-135020000D03*
%TD*%
D24*
%TO.C,R102*%
X82900000Y-130725000D03*
X82900000Y-129075000D03*
%TD*%
D12*
%TO.C,K1*%
X55160000Y-87362500D03*
X52620000Y-87362500D03*
X50080000Y-87362500D03*
X47540000Y-87362500D03*
X47540000Y-94362500D03*
X50080000Y-94362500D03*
X52620000Y-94362500D03*
X55160000Y-94362500D03*
%TD*%
D51*
%TO.C,D37*%
X77400000Y-103237500D03*
X77400000Y-101662500D03*
%TD*%
D77*
%TO.C,D2*%
X48450000Y-100000000D03*
X48450000Y-104000000D03*
%TD*%
D35*
%TO.C,C107*%
X53350000Y-101280000D03*
X53350000Y-100320000D03*
%TD*%
D57*
%TO.C,D29*%
X69475000Y-121500000D03*
X73475000Y-121500000D03*
%TD*%
D16*
%TO.C,D9*%
X117962500Y-132600000D03*
X119537500Y-132600000D03*
%TD*%
D27*
%TO.C,R21*%
X101110000Y-59750000D03*
X100090000Y-59750000D03*
%TD*%
D71*
%TO.C,C66*%
X78800000Y-115200000D03*
X78800000Y-110800000D03*
%TD*%
D25*
%TO.C,R128*%
X80650000Y-98375000D03*
X80650000Y-100025000D03*
%TD*%
D80*
%TO.C,U1*%
X97469685Y-89315596D03*
X97116132Y-88962043D03*
X96762578Y-88608489D03*
X96409025Y-88254936D03*
X96055472Y-87901383D03*
X95701918Y-87547829D03*
X95348365Y-87194276D03*
X94994811Y-86840722D03*
X94641258Y-86487169D03*
X94287705Y-86133616D03*
X93934151Y-85780062D03*
X93580598Y-85426509D03*
X93227045Y-85072955D03*
X92873491Y-84719402D03*
X92519938Y-84365849D03*
X92166384Y-84012295D03*
X91812831Y-83658742D03*
X91459278Y-83305189D03*
X91105724Y-82951635D03*
X90752171Y-82598082D03*
X90398617Y-82244528D03*
X90045064Y-81890975D03*
X89691511Y-81537422D03*
X89337957Y-81183868D03*
X88984404Y-80830315D03*
D81*
X86615596Y-80830315D03*
X86262043Y-81183868D03*
X85908489Y-81537422D03*
X85554936Y-81890975D03*
X85201383Y-82244528D03*
X84847829Y-82598082D03*
X84494276Y-82951635D03*
X84140722Y-83305189D03*
X83787169Y-83658742D03*
X83433616Y-84012295D03*
X83080062Y-84365849D03*
X82726509Y-84719402D03*
X82372955Y-85072955D03*
X82019402Y-85426509D03*
X81665849Y-85780062D03*
X81312295Y-86133616D03*
X80958742Y-86487169D03*
X80605189Y-86840722D03*
X80251635Y-87194276D03*
X79898082Y-87547829D03*
X79544528Y-87901383D03*
X79190975Y-88254936D03*
X78837422Y-88608489D03*
X78483868Y-88962043D03*
X78130315Y-89315596D03*
D80*
X78130315Y-91684404D03*
X78483868Y-92037957D03*
X78837422Y-92391511D03*
X79190975Y-92745064D03*
X79544528Y-93098617D03*
X79898082Y-93452171D03*
X80251635Y-93805724D03*
X80605189Y-94159278D03*
X80958742Y-94512831D03*
X81312295Y-94866384D03*
X81665849Y-95219938D03*
X82019402Y-95573491D03*
X82372955Y-95927045D03*
X82726509Y-96280598D03*
X83080062Y-96634151D03*
X83433616Y-96987705D03*
X83787169Y-97341258D03*
X84140722Y-97694811D03*
X84494276Y-98048365D03*
X84847829Y-98401918D03*
X85201383Y-98755472D03*
X85554936Y-99109025D03*
X85908489Y-99462578D03*
X86262043Y-99816132D03*
X86615596Y-100169685D03*
D81*
X88984404Y-100169685D03*
X89337957Y-99816132D03*
X89691511Y-99462578D03*
X90045064Y-99109025D03*
X90398617Y-98755472D03*
X90752171Y-98401918D03*
X91105724Y-98048365D03*
X91459278Y-97694811D03*
X91812831Y-97341258D03*
X92166384Y-96987705D03*
X92519938Y-96634151D03*
X92873491Y-96280598D03*
X93227045Y-95927045D03*
X93580598Y-95573491D03*
X93934151Y-95219938D03*
X94287705Y-94866384D03*
X94641258Y-94512831D03*
X94994811Y-94159278D03*
X95348365Y-93805724D03*
X95701918Y-93452171D03*
X96055472Y-93098617D03*
X96409025Y-92745064D03*
X96762578Y-92391511D03*
X97116132Y-92037957D03*
X97469685Y-91684404D03*
%TD*%
D27*
%TO.C,R173*%
X71410000Y-96950000D03*
X70390000Y-96950000D03*
%TD*%
D17*
%TO.C,R103*%
X81225000Y-128700000D03*
X79575000Y-128700000D03*
%TD*%
D14*
%TO.C,C55*%
X75400000Y-147320000D03*
X75400000Y-148280000D03*
%TD*%
D13*
%TO.C,R95*%
X96325000Y-117950000D03*
X97975000Y-117950000D03*
%TD*%
%TO.C,R4*%
X59575000Y-100700000D03*
X61225000Y-100700000D03*
%TD*%
D33*
%TO.C,D31*%
X106600000Y-146462500D03*
X106600000Y-148037500D03*
%TD*%
D35*
%TO.C,C21*%
X99200000Y-55480000D03*
X99200000Y-54520000D03*
%TD*%
D25*
%TO.C,R26*%
X97800000Y-51675000D03*
X97800000Y-53325000D03*
%TD*%
D32*
%TO.C,Q8*%
X57550000Y-80250000D03*
X57550000Y-80900000D03*
X57550000Y-81550000D03*
X59450000Y-81550000D03*
X59450000Y-80900000D03*
X59450000Y-80250000D03*
%TD*%
D12*
%TO.C,K2*%
X55210000Y-77512500D03*
X52670000Y-77512500D03*
X50130000Y-77512500D03*
X47590000Y-77512500D03*
X47590000Y-84512500D03*
X50130000Y-84512500D03*
X52670000Y-84512500D03*
X55210000Y-84512500D03*
%TD*%
M02*
