M48
; DRILL file {KiCad 9.0.2} date 2025-12-23T12:33:57+0100
; FORMAT={-:-/ absolute / metric / decimal}
; #@! TF.CreationDate,2025-12-23T12:33:57+01:00
; #@! TF.GenerationSoftware,Kicad,Pcbnew,9.0.2
; #@! TF.FileFunction,Plated,1,2,PTH
FMAT,2
METRIC
; #@! TA.AperFunction,Plated,PTH,ViaDrill
T1C0.300
; #@! TA.AperFunction,Plated,PTH,ViaDrill
T2C0.350
; #@! TA.AperFunction,Plated,PTH,ComponentDrill
T3C0.600
; #@! TA.AperFunction,Plated,PTH,ComponentDrill
T4C1.000
; #@! TA.AperFunction,Plated,PTH,ComponentDrill
T5C1.200
%
G90
G05
T1
X50.65Y-132.701
X63.925Y-120.075
X64.324Y-126.8
X64.6Y-123.7
X65.4Y-112.85
X67.75Y-108.35
X68.35Y-128.2
X73.025Y-124.475
X73.51Y-67.09
X74.0Y-104.2
X74.95Y-99.0
X75.75Y-105.65
X76.65Y-118.25
X77.25Y-110.75
X77.3Y-133.325
X78.275Y-117.425
X78.8Y-95.4
X79.95Y-124.375
X80.1Y-144.9
X80.475Y-115.0
X80.5Y-134.5
X80.65Y-136.55
X83.6Y-120.375
X83.675Y-85.925
X83.9Y-132.9
X84.15Y-142.27
X85.325Y-110.225
X86.0Y-76.8
X86.025Y-97.5
X86.1Y-102.2
X87.15Y-152.6
X87.2Y-98.875
X87.8Y-102.7
X88.6Y-98.45
X88.8Y-108.3
X89.3Y-83.6
X90.275Y-142.525
X91.561Y-80.639
X91.925Y-115.975
X92.7Y-74.5
X92.7Y-94.3
X92.8Y-140.6
X93.7Y-81.6
X93.75Y-107.875
X95.0Y-82.1
X95.2Y-144.8
X95.7Y-90.8
X95.8Y-140.6
X96.2Y-84.8
X97.3Y-77.4
X97.3Y-114.55
X97.4Y-136.6
X97.9Y-133.5
X101.5Y-135.5
X102.7Y-152.6
X103.1Y-137.075
X104.5Y-133.375
X107.975Y-138.55
T2
X35.3Y-51.4
X35.6Y-152.6
X39.5Y-120.5
X44.3Y-74.9
X44.9Y-71.5
X44.9Y-82.9
X45.9Y-130.1
X47.0Y-101.5
X47.9Y-125.0
X47.9Y-152.1
X49.0Y-90.0
X50.0Y-106.9
X51.8Y-116.5
X52.6Y-118.6
X53.1Y-128.1
X53.8Y-96.8
X54.0Y-77.5
X54.8Y-79.2
X56.1Y-94.9
X56.2Y-86.6
X56.3Y-129.5
X56.7Y-58.4
X56.9Y-65.3
X57.0Y-79.5
X57.8Y-96.8
X58.4Y-68.7
X58.7Y-66.4
X59.4Y-78.1
X59.9Y-51.2
X60.1Y-67.8
X60.2Y-57.5
X60.5Y-72.0
X60.6Y-60.9
X60.6Y-82.6
X61.0Y-93.3
X61.4Y-102.4
X61.4Y-124.3
X61.4Y-130.3
X62.5Y-97.2
X62.5Y-142.2
X63.8Y-94.1
X63.9Y-58.0
X63.9Y-68.8
X64.3Y-77.6
X65.9Y-67.4
X66.0Y-143.1
X66.1Y-102.5
X67.6Y-79.0
X67.9Y-98.9
X68.3Y-70.9
X69.0Y-80.9
X69.1Y-152.5
X69.3Y-97.5
X70.9Y-70.2
X71.3Y-73.175
X72.0Y-84.2
X72.3Y-131.4
X72.7Y-73.3
X72.8Y-97.2
X73.1Y-69.3
X73.8Y-73.1
X74.142Y-68.458
X74.4Y-85.4
X74.4Y-94.0
X74.5Y-84.2
X75.4Y-89.5
X75.6Y-51.1
X76.5Y-99.1
X77.562Y-93.962
X77.6Y-51.9
X78.058Y-93.465
X78.1Y-90.6
X78.6Y-94.15
X78.6Y-138.8
X79.259Y-94.687
X79.6Y-90.0
X80.012Y-91.512
X80.5Y-91.0
X80.6Y-84.7
X80.666Y-92.055
X81.221Y-92.699
X81.4Y-54.5
X81.6Y-91.3
X81.886Y-93.227
X82.3Y-138.7
X82.6Y-94.0
X83.2Y-104.6
X84.7Y-52.5
X84.8Y-57.6
X86.5Y-140.7
X86.6Y-79.6
X87.4Y-73.5
X87.8Y-80.8
X88.1Y-83.05
X88.55Y-82.5
X89.2Y-103.8
X89.6Y-77.1
X90.15Y-79.1
X90.15Y-79.9
X91.0Y-118.1
X91.2Y-132.0
X91.6Y-51.6
X91.7Y-85.7
X91.9Y-59.4
X92.1Y-103.9
X92.8Y-76.6
X92.8Y-117.3
X92.9Y-102.1
X94.2Y-88.5
X94.3Y-134.2
X94.4Y-73.8
X94.9Y-51.6
X95.0Y-125.8
X95.1Y-55.6
X95.4Y-118.2
X95.7Y-102.0
X96.0Y-119.7
X97.0Y-81.7
X97.4Y-145.2
X98.5Y-77.7
X99.0Y-51.5
X99.1Y-131.1
X99.2Y-58.1
X99.5Y-96.5
X99.7Y-78.9
X99.8Y-88.9
X100.4Y-82.7
X100.9Y-140.7
X101.2Y-51.5
X101.4Y-119.1
X101.5Y-138.3
X101.9Y-91.8
X102.9Y-74.0
X102.9Y-129.7
X103.4Y-104.0
X104.2Y-128.1
X105.5Y-83.3
X105.6Y-61.6
X106.8Y-120.5
X107.7Y-145.1
X108.0Y-74.8
X108.0Y-143.3
X108.2Y-100.3
X108.5Y-51.5
X109.1Y-67.8
X109.4Y-83.9
X109.4Y-142.4
X109.6Y-104.8
X109.8Y-62.9
X109.9Y-65.5
X110.3Y-61.1
X111.1Y-54.5
X111.3Y-100.1
X112.0Y-72.5
X112.3Y-58.2
X112.3Y-109.5
X112.6Y-55.0
X113.6Y-78.3
X114.3Y-140.4
X114.6Y-103.6
X115.8Y-131.1
X116.0Y-64.3
X116.2Y-54.0
X116.2Y-122.3
X117.1Y-110.7
X117.2Y-90.85
X118.5Y-51.6
X118.5Y-86.1
X119.0Y-78.4
X119.1Y-83.8
X119.2Y-53.9
X119.25Y-86.9
X119.3Y-68.1
X119.7Y-152.5
X119.8Y-120.3
X119.9Y-129.5
X120.1Y-87.7
T4
X59.3Y-117.7
X61.84Y-117.7
X67.775Y-100.485
X67.775Y-103.025
X70.315Y-100.485
X70.315Y-103.025
X71.06Y-60.9
X71.06Y-63.44
X72.855Y-103.025
X72.855Y-100.485
X72.935Y-107.8
X73.6Y-60.9
X73.6Y-63.44
X75.475Y-107.8
X78.9Y-52.76
X78.9Y-55.3
X78.9Y-57.84
X78.9Y-60.38
X94.5Y-103.0
X97.04Y-103.0
X99.58Y-103.0
X109.85Y-116.925
X109.85Y-119.465
T5
X42.52Y-68.619
X42.52Y-72.429
X42.52Y-76.239
X42.52Y-80.049
X42.52Y-83.859
X42.52Y-87.669
X42.52Y-91.479
X42.52Y-95.289
X42.52Y-99.099
X42.52Y-102.909
X42.52Y-106.719
X42.52Y-110.529
X42.52Y-114.339
X42.52Y-118.149
X42.52Y-121.959
X42.52Y-125.769
X42.52Y-129.579
X42.52Y-133.389
X42.52Y-137.199
X42.52Y-140.614
T3
G00X89.08Y-146.445
M15
G01X89.08Y-147.545
M16
G05
G00X89.08Y-150.775
M15
G01X89.08Y-151.575
M16
G05
G00X97.72Y-146.445
M15
G01X97.72Y-147.545
M16
G05
G00X97.72Y-150.775
M15
G01X97.72Y-151.575
M16
G05
G00X113.645Y-54.88
M15
G01X114.745Y-54.88
M16
G05
G00X113.645Y-63.52
M15
G01X114.745Y-63.52
M16
G05
G00X117.975Y-54.88
M15
G01X118.775Y-54.88
M16
G05
G00X117.975Y-63.52
M15
G01X118.775Y-63.52
M16
G05
T4
G00X61.5Y-139.9
M15
G01X64.1Y-139.9
M16
G05
G00X61.7Y-146.2
M15
G01X63.9Y-146.2
M16
G05
G00X67.6Y-141.7
M15
G01X67.6Y-143.9
M16
G05
M30
